HIERARCHY
ROOT Hips
{
	OFFSET -0.001795 -0.223333 0.028219
	CHANNELS 6 Xposition Yposition Zposition Zrotation Yrotation Xrotation 
	JOINT LeftUpLeg
	{
		OFFSET 0.069520 -0.091406 -0.006815
		CHANNELS 3 Zrotation Yrotation Xrotation
		JOINT LeftLeg
		{
			OFFSET 0.034277 -0.375199 -0.004496
			CHANNELS 3 Zrotation Yrotation Xrotation
			JOINT LeftFoot
			{
				OFFSET -0.013596 -0.397961 -0.043693
				CHANNELS 3 Zrotation Yrotation Xrotation
				JOINT LeftToe
				{
					OFFSET 0.026358 -0.055791 0.119288
					CHANNELS 3 Zrotation Yrotation Xrotation
					End Site
					{
						OFFSET 0.000000 0.000000 0.000000
					}
				}
			}
		}
	}
	JOINT RightUpLeg
	{
		OFFSET -0.067670 -0.090522 -0.004320
		CHANNELS 3 Zrotation Yrotation Xrotation
		JOINT RightLeg
		{
			OFFSET -0.038290 -0.382569 -0.008850
			CHANNELS 3 Zrotation Yrotation Xrotation
			JOINT RightFoot
			{
				OFFSET 0.015774 -0.398415 -0.042312
				CHANNELS 3 Zrotation Yrotation Xrotation
				JOINT RightToe
				{
					OFFSET -0.025372 -0.048144 0.123348
					CHANNELS 3 Zrotation Yrotation Xrotation
					End Site
					{
						OFFSET 0.000000 0.000000 0.000000
					}
				}
			}
		}
	}
	JOINT Spine
	{
		OFFSET -0.002533 0.108963 -0.026696
		CHANNELS 3 Zrotation Yrotation Xrotation
		JOINT Spine1
		{
			OFFSET 0.005487 0.135180 0.001092
			CHANNELS 3 Zrotation Yrotation Xrotation
			JOINT Spine2
			{
				OFFSET 0.001457 0.052922 0.025425
				CHANNELS 3 Zrotation Yrotation Xrotation
				JOINT Neck
				{
					OFFSET -0.002778 0.213870 -0.042857
					CHANNELS 3 Zrotation Yrotation Xrotation
					JOINT Head
					{
						OFFSET 0.005152 0.064970 0.051349
						CHANNELS 3 Zrotation Yrotation Xrotation
						End Site
						{
							OFFSET 0.000000 0.000000 0.000000
						}
					}
				}
				JOINT LeftShoulder
				{
					OFFSET 0.078845 0.121749 -0.034090
					CHANNELS 3 Zrotation Yrotation Xrotation
					JOINT LeftArm
					{
						OFFSET 0.090977 0.030469 -0.008868
						CHANNELS 3 Zrotation Yrotation Xrotation
						JOINT LeftForeArm
						{
							OFFSET 0.259612 -0.012772 -0.027456
							CHANNELS 3 Zrotation Yrotation Xrotation
							JOINT LeftHand
							{
								OFFSET 0.249234 0.008986 -0.001171
								CHANNELS 3 Zrotation Yrotation Xrotation
								End Site
								{
									OFFSET 0.000000 0.000000 0.000000
								}
							}
						}
					}
				}
				JOINT RightShoulder
				{
					OFFSET -0.081759 0.118833 -0.038615
					CHANNELS 3 Zrotation Yrotation Xrotation
					JOINT RightArm
					{
						OFFSET -0.096012 0.032551 -0.009143
						CHANNELS 3 Zrotation Yrotation Xrotation
						JOINT RightForeArm
						{
							OFFSET -0.253742 -0.013329 -0.021401
							CHANNELS 3 Zrotation Yrotation Xrotation
							JOINT RightHand
							{
								OFFSET -0.255298 0.007772 -0.005559
								CHANNELS 3 Zrotation Yrotation Xrotation
								End Site
								{
									OFFSET 0.000000 0.000000 0.000000
								}
							}
						}
					}
				}
			}
		}
	}
}
MOTION
Frames: 15
Frame Time: 0.050000
0.004900 0.948088 -0.019440 -1.175517 -6.956022 -0.641755 0.269749 0.574102 5.835188 0.814552 0.176653 -6.445936 -3.904231 -4.086044 8.863804 0.000000 0.000000 0.000000 1.401800 -0.254857 1.998933 -1.254019 0.013454 -2.059112 4.938585 5.311524 9.239032 0.000000 0.000000 0.000000 5.654880 -0.256432 2.662009 -1.877302 0.909727 0.319305 -4.699390 7.296744 0.507097 9.496210 -3.137347 -20.786968 0.000000 0.000000 0.000000 -25.731372 -3.150297 -2.573878 -46.842345 -5.799330 -2.515346 -7.590504 -18.178572 1.692228 0.000000 0.000000 0.000000 24.841962 -3.997671 -3.381320 52.338741 3.154513 -3.761641 7.223576 20.932003 2.046023 0.000000 0.000000 0.000000 
0.004777 0.948274 -0.020783 -1.166718 -6.801534 -0.627369 0.143192 0.573650 5.782215 1.079745 0.165915 -6.573388 -3.985729 -4.165300 8.983943 0.000000 0.000000 0.000000 1.303055 -0.243202 1.931405 -1.038028 -0.004817 -2.101568 4.905576 5.185115 9.357878 0.000000 0.000000 0.000000 5.812140 -0.263592 2.695103 -1.982623 0.960137 0.277336 -4.885182 7.352770 0.536245 9.704646 -3.209644 -20.924126 0.000000 0.000000 0.000000 -25.563024 -3.265374 -2.539565 -46.707444 -5.638332 -2.556674 -8.196822 -18.233751 1.786868 0.000000 0.000000 0.000000 24.742080 -4.059427 -3.352638 52.659844 3.154206 -3.792399 7.431586 20.801341 2.073429 0.000000 0.000000 0.000000 
0.004702 0.948176 -0.022062 -1.123502 -6.633725 -0.486766 0.154862 0.559198 5.661688 1.022302 0.182158 -6.826588 -4.091454 -4.285690 9.103892 0.000000 0.000000 0.000000 1.229097 -0.216269 1.697747 -0.935692 -0.011951 -2.091420 4.822248 5.040050 9.347646 0.000000 0.000000 0.000000 5.933759 -0.250946 2.488011 -2.027048 0.983195 0.375164 -5.081497 7.466548 0.523109 9.780864 -3.264974 -20.706589 0.000000 0.000000 0.000000 -25.310120 -3.416351 -2.498359 -46.871680 -5.350736 -2.655418 -8.509651 -18.459878 1.849102 0.000000 0.000000 0.000000 24.558195 -4.114320 -3.291320 53.069798 3.098749 -3.848519 7.749156 20.757782 2.132063 0.000000 0.000000 0.000000 
0.004690 0.948162 -0.023201 -1.095831 -6.510814 -0.364230 -0.010850 0.571792 5.713652 1.295617 0.191845 -7.327275 -4.185106 -4.354419 9.302480 0.000000 0.000000 0.000000 1.025692 -0.197161 1.597894 -0.589666 -0.046112 -2.274612 4.804577 4.948779 9.458544 0.000000 0.000000 0.000000 6.006732 -0.243910 2.361092 -2.171671 1.050695 0.232970 -5.125817 7.557753 0.881707 9.887215 -3.286825 -20.884869 0.000000 0.000000 0.000000 -25.068379 -3.334432 -2.540518 -46.979142 -5.342792 -2.691683 -8.868187 -18.712591 1.928818 0.000000 0.000000 0.000000 24.566645 -4.243762 -3.314293 53.089151 3.361398 -3.780758 8.118398 20.467376 2.167428 0.000000 0.000000 0.000000 
0.004870 0.947795 -0.024087 -1.021199 -6.525747 -0.324535 -0.197470 0.596429 5.855216 1.467813 0.206736 -7.777355 -4.199152 -4.347402 9.382016 0.000000 0.000000 0.000000 0.900737 -0.191189 1.594722 -0.521040 -0.059473 -2.469498 4.800132 4.970108 9.408190 0.000000 0.000000 0.000000 6.087940 -0.243563 2.329684 -2.280132 1.101014 0.113811 -5.315181 7.746947 1.128239 10.017556 -3.324189 -20.999090 0.000000 0.000000 0.000000 -25.060005 -3.569189 -2.462672 -46.856579 -5.266598 -2.711424 -8.938552 -18.823825 1.947122 0.000000 0.000000 0.000000 24.602315 -4.080706 -3.141870 53.093636 3.406670 -3.805568 8.239631 20.587140 2.212250 0.000000 0.000000 0.000000 
0.005374 0.947280 -0.024581 -1.020717 -6.263698 -0.177350 -0.354991 0.617685 5.994472 1.731347 0.230635 -8.430509 -4.343570 -4.538901 9.469103 0.000000 0.000000 0.000000 0.700012 -0.157705 1.344952 -0.175874 -0.078887 -2.328765 4.640661 4.774939 9.251558 0.000000 0.000000 0.000000 6.136588 -0.217799 2.000093 -2.332824 1.124075 0.009373 -5.397671 7.747431 1.488308 10.124206 -3.403067 -20.877093 0.000000 0.000000 0.000000 -24.889929 -3.775266 -2.344732 -47.060149 -4.998750 -2.851178 -9.171991 -19.282348 2.031098 0.000000 0.000000 0.000000 24.439177 -3.976710 -3.009988 53.018471 3.391116 -3.846929 8.948339 20.789381 2.366096 0.000000 0.000000 0.000000 
0.006361 0.946462 -0.024453 -1.058410 -6.146683 -0.268572 -0.636427 0.660861 6.256725 2.210174 0.227723 -8.731074 -4.345187 -4.624230 9.260226 0.000000 0.000000 0.000000 0.505500 -0.155076 1.407951 0.144700 -0.098641 -2.223163 4.533480 4.725981 9.004722 0.000000 0.000000 0.000000 6.403891 -0.200613 1.789634 -2.600393 1.258605 0.227438 -5.493818 7.620293 1.495700 9.899025 -3.301166 -20.774633 0.000000 0.000000 0.000000 -24.707953 -4.010691 -2.166895 -47.285455 -5.093085 -2.843638 -8.951232 -18.988216 1.967014 0.000000 0.000000 0.000000 24.258487 -3.497527 -2.714456 52.940510 3.289877 -3.879867 9.176280 20.774443 2.397061 0.000000 0.000000 0.000000 
0.007940 0.945633 -0.023364 -1.159656 -5.958033 -0.284296 -0.888610 0.684181 6.349658 2.689669 0.210679 -8.772445 -4.336889 -4.752001 8.906810 0.000000 0.000000 0.000000 0.413939 -0.132546 1.216700 0.335405 -0.093622 -1.677711 4.340613 4.595484 8.612182 0.000000 0.000000 0.000000 6.594264 -0.168263 1.427295 -2.709089 1.313846 0.337230 -5.442618 7.675118 1.663468 9.735164 -3.354591 -19.950187 0.000000 0.000000 0.000000 -24.784262 -4.251704 -2.080372 -47.411104 -4.967623 -2.896435 -8.899749 -18.715037 1.927963 0.000000 0.000000 0.000000 24.228237 -3.752370 -2.819949 52.844785 3.336459 -3.878094 9.335330 20.604831 2.408829 0.000000 0.000000 0.000000 
0.010068 0.945100 -0.020951 -1.264977 -5.722179 -0.253980 -1.121704 0.708230 6.455757 3.073187 0.196716 -8.787995 -4.371947 -4.923967 8.620909 0.000000 0.000000 0.000000 0.189520 -0.091604 0.886974 0.697855 -0.094131 -0.819272 4.132632 4.417936 8.247202 0.000000 0.000000 0.000000 6.679252 -0.132667 1.044565 -2.657177 1.293298 0.578577 -5.382835 7.617437 1.506034 9.709207 -3.405010 -19.538441 0.000000 0.000000 0.000000 -24.593070 -4.174014 -2.126338 -47.576798 -4.744842 -2.980667 -9.038307 -18.427513 1.916333 0.000000 0.000000 0.000000 24.225743 -3.839579 -2.857459 52.512112 3.118410 -3.941315 9.449289 20.731270 2.446682 0.000000 0.000000 0.000000 
0.012400 0.944240 -0.017093 -1.415658 -4.958142 -0.388461 -1.043500 0.760210 7.019231 3.053581 0.226651 -9.215049 -4.704251 -5.567268 8.377715 0.000000 0.000000 0.000000 0.425344 -0.034600 0.219231 0.373962 0.011483 1.242434 3.515460 3.738217 7.350497 0.000000 0.000000 0.000000 6.603059 -0.097829 0.706618 -2.450397 1.195875 0.905932 -5.459475 7.306842 1.173245 10.044835 -3.769177 -18.536693 0.000000 0.000000 0.000000 -24.590066 -4.484764 -2.004828 -47.510290 -3.881283 -3.261406 -9.136118 -18.778899 1.961719 0.000000 0.000000 0.000000 24.699196 -4.219983 -3.096810 52.310116 2.709621 -4.094430 8.406740 21.126834 2.326260 0.000000 0.000000 0.000000 
0.014775 0.943325 -0.011955 -1.583472 -4.156493 -0.510828 -0.651717 0.783183 7.550634 2.507119 0.259568 -9.454261 -5.052837 -6.286666 8.056408 0.000000 0.000000 0.000000 0.570888 0.121146 -1.337978 0.284787 0.176309 5.028020 2.798503 2.881799 6.312891 0.000000 0.000000 0.000000 6.535414 -0.081792 0.550495 -2.185721 1.058364 0.541736 -5.467075 7.068344 1.345778 10.177618 -3.906855 -18.190865 0.000000 0.000000 0.000000 -24.106195 -4.055991 -2.221624 -47.090227 -3.416532 -3.421473 -10.958270 -19.288810 2.306910 0.000000 0.000000 0.000000 24.557807 -4.961953 -3.487155 52.686325 1.878476 -4.484639 8.194334 21.456793 2.346220 0.000000 0.000000 0.000000 
0.016903 0.941795 -0.006186 -1.584252 -3.075834 -0.848989 -0.481712 0.867028 8.595503 2.134704 0.311095 -10.185302 -5.567768 -7.258351 7.824531 0.000000 0.000000 0.000000 1.294217 0.401476 -3.929212 -1.470445 0.847752 12.013818 2.262602 3.316818 3.736889 0.000000 0.000000 0.000000 6.106391 -0.094020 0.755515 -2.014818 0.975461 0.895030 -5.482854 6.458209 1.297784 10.163000 -3.949222 -17.939783 0.000000 0.000000 0.000000 -23.849376 -4.055698 -2.171232 -46.798817 -3.168831 -3.492828 -10.854083 -18.986871 2.255782 0.000000 0.000000 0.000000 24.920638 -4.907838 -3.494685 52.902060 2.270597 -4.340238 7.115696 22.135446 2.240984 0.000000 0.000000 0.000000 
0.018500 0.940395 0.000244 -1.514801 -2.441135 -1.822926 0.041904 0.974650 10.216234 1.023311 0.350533 -10.505729 -5.923626 -8.022870 7.537619 0.000000 0.000000 0.000000 1.597629 0.804090 -7.330984 -2.511261 1.784013 21.726273 2.404295 4.455473 2.549464 0.000000 0.000000 0.000000 5.125111 -0.208067 2.386381 -1.389970 0.671466 -0.081015 -5.502875 6.808317 2.500961 10.138308 -3.766421 -18.687115 0.000000 0.000000 0.000000 -23.962782 -4.110367 -2.320127 -45.531401 -3.287472 -3.365924 -12.010196 -19.997805 2.554710 0.000000 0.000000 0.000000 25.274979 -5.041019 -3.361915 52.646003 3.300011 -4.086081 7.056904 22.784370 2.352354 0.000000 0.000000 0.000000 
0.019767 0.939798 0.008491 -1.939891 -0.874267 -2.647621 0.688206 0.930648 10.774150 0.904223 0.286106 -9.177631 -6.398314 -9.341221 6.600338 0.000000 0.000000 0.000000 2.200727 1.422286 -12.122691 -2.730532 2.599995 32.736130 3.511712 4.792202 6.329488 0.000000 0.000000 0.000000 4.597409 -0.323387 4.084838 -1.226674 0.598771 -0.364071 -4.773589 5.796264 3.527811 9.946015 -3.417582 -20.277584 0.000000 0.000000 0.000000 -25.081427 -4.660542 -2.027877 -43.997803 -4.615499 -2.824965 -11.838643 -20.408602 2.604517 0.000000 0.000000 0.000000 25.676633 -5.252518 -3.609078 52.004134 3.707249 -3.972544 7.647791 23.339095 2.529881 0.000000 0.000000 0.000000 
0.020505 0.939236 0.020922 -2.106046 0.503359 -2.803491 0.911680 0.966426 11.880405 1.092308 0.294591 -9.657114 -7.024063 -10.457526 6.548091 0.000000 0.000000 0.000000 2.101423 1.939879 -16.592617 -1.864953 2.149630 34.033794 4.157613 -1.345293 22.488274 0.000000 0.000000 0.000000 3.699603 -0.386061 5.343366 -0.206960 0.123682 -0.814626 -4.568745 4.737052 4.216833 9.550770 -3.080365 -21.241855 0.000000 0.000000 0.000000 -25.881390 -4.563675 -2.036107 -43.223820 -5.338174 -2.584207 -11.224110 -21.139795 2.610904 0.000000 0.000000 0.000000 24.364726 -4.846467 -3.362506 52.997377 3.806459 -3.958741 7.852702 23.140044 2.531189 0.000000 0.000000 0.000000 
